<?xml version="1.0" encoding="UTF-8"?>
<svg width="1200pt" height="1200pt" version="1.1" viewBox="0 0 1200 1200" xmlns="http://www.w3.org/2000/svg">
 <g>
  <path d="m600 150c-248.51 0-450 201.49-450 450s201.49 450 450 450 450-201.49 450-450-201.49-450-450-450zm0 862.5c-227.44 0-412.5-185.1-412.5-412.5 0-227.44 185.06-412.5 412.5-412.5 227.4 0 412.5 185.06 412.5 412.5 0 227.4-185.1 412.5-412.5 412.5z"/>
  <path d="m911.7 440.85h0.074219c4.3125 0 8.5859 0.71094 12.523 2.2109 3.1484 1.1641 6.5625-0.41406 7.6875-3.5234 1.0859-3.1133-0.48828-6.5234-3.5625-7.6484-5.3984-1.9883-11.023-3-16.727-2.9609-26.812 0-48.711 21.824-48.711 48.676 0 7.4609 1.6875 14.625 4.9141 21.262 1.0117 2.1016 3.1484 3.3359 5.3633 3.3359 0.86328 0 1.7617-0.1875 2.625-0.5625 2.9258-1.4609 4.1641-5.0234 2.6992-7.9883-2.3984-5.0234-3.6758-10.426-3.6758-16.051 0.039063-20.289 16.504-36.75 36.789-36.75z"/>
  <path d="m968.32 626.4c-5.4375-2.0234-11.062-3-16.762-2.9609-26.812 0-48.676 21.824-48.676 48.676 0 7.4258 1.6484 14.625 4.875 21.262 1.0117 2.1367 3.1484 3.3359 5.3633 3.3359 0.86328 0 1.7617-0.1875 2.6641-0.5625 2.9258-1.4609 4.1641-5.0625 2.6992-7.9883-2.4375-5.0625-3.7109-10.426-3.7109-16.086 0-20.25 16.461-36.711 36.75-36.711h0.074218c4.3125 0 8.5859 0.71094 12.562 2.2109 3.1133 1.1641 6.5625-0.41406 7.6484-3.5234 1.0859-3.1133-0.41406-6.5273-3.4883-7.6523z"/>
  <path d="m902.89 564.3c0 7.4609 1.6484 14.625 4.875 21.262 1.0117 2.1016 3.1484 3.3359 5.3633 3.3359 0.86328 0 1.7617-0.1875 2.6641-0.5625 2.9258-1.4609 4.1641-5.0234 2.6992-7.9883-2.4375-5.0234-3.7109-10.426-3.7109-16.051 0-20.289 16.461-36.75 36.75-36.75h0.074218c4.3125 0 8.5859 0.71094 12.562 2.2109 3.1133 1.1641 6.5625-0.41406 7.6484-3.5234 1.0859-3.1133-0.44922-6.5234-3.5234-7.6484-5.4375-1.9883-11.062-3-16.762-2.9609-26.777 0-48.641 21.824-48.641 48.676z"/>
  <path d="m848.77 795.15c-5.3984-2.0234-11.023-3-16.727-2.9609-26.812 0-48.711 21.824-48.711 48.676 0 7.4258 1.6875 14.625 4.9141 21.262 1.0117 2.1367 3.1484 3.3359 5.3633 3.3359 0.86328 0 1.7617-0.1875 2.625-0.63672 2.9258-1.3867 4.1641-4.9883 2.6992-7.9883-2.3984-5.0234-3.6758-10.387-3.6758-16.051 0-20.25 16.461-36.711 36.75-36.711h0.074219c4.3125 0 8.5859 0.75 12.523 2.2109 3.1484 1.1641 6.5625-0.44922 7.6875-3.5234 1.1289-3.0742-0.44531-6.4883-3.5234-7.6133z"/>
  <path d="m689.44 912.34c-5.3984-2.0234-11.023-3-16.762-2.9609-26.812 0-48.637 21.824-48.637 48.676 0 7.4258 1.6133 14.625 4.8359 21.262 1.0117 2.1367 3.1484 3.3359 5.3633 3.3359 0.86328 0 1.7617-0.1875 2.625-0.63672 2.9258-1.3867 4.1641-4.9883 2.6992-7.9883-2.3633-5.0234-3.6367-10.387-3.6367-16.051 0-20.25 16.426-36.711 36.711-36.711h0.074219c4.3125 0 8.5859 0.75 12.602 2.2109 3.0742 1.1641 6.5234-0.44922 7.6133-3.5234 1.1602-3.0742-0.41406-6.4883-3.4883-7.6133z"/>
  <path d="m724.27 808.8c4.3125 0 8.5859 0.75 12.523 2.2109 3.1484 1.1641 6.5625-0.44922 7.6875-3.5234 1.0859-3.1133-0.48828-6.5234-3.5625-7.6484-5.3984-2.0234-11.023-3-16.727-2.9609-26.812 0-48.711 21.824-48.711 48.676 0 7.4258 1.6875 14.625 4.9141 21.262 1.0117 2.1367 3.1484 3.3359 5.3633 3.3359 0.86328 0 1.7617-0.1875 2.625-0.63672 2.9258-1.3867 4.1641-4.9883 2.6992-7.9883-2.3984-5.0234-3.6758-10.387-3.6758-16.051 0-20.25 16.461-36.711 36.75-36.711 0.11328 0.035156 0.11328 0.035156 0.11328 0.035156z"/>
  <path d="m784.2 638.18c0.86328 0 1.7617-0.22656 2.625-0.60156 2.9258-1.4609 4.1641-5.0234 2.6992-7.9883-2.3984-5.0234-3.6758-10.426-3.6758-16.051 0-20.289 16.461-36.75 36.75-36.75h0.074219c4.3125 0 8.5859 0.71094 12.523 2.2109 3.1484 1.1641 6.5625-0.41406 7.6875-3.5234 1.0859-3.1133-0.48828-6.5234-3.5625-7.6484-5.3984-1.9883-11.023-3-16.727-2.9609-26.812 0-48.711 21.824-48.711 48.676 0 7.5 1.6875 14.625 4.9141 21.262 1.0898 2.0977 3.2266 3.375 5.4023 3.375z"/>
  <path d="m787.84 895.99c-5.3984-2.0234-11.023-3-16.727-3-26.812 0-48.711 21.824-48.711 48.711 0 7.3867 1.6875 14.586 4.9141 21.227 1.0117 2.1367 3.1484 3.375 5.3633 3.375 0.86328 0 1.7617-0.22656 2.625-0.63672 2.9258-1.4258 4.1641-5.0234 2.6992-7.9883-2.3984-5.0234-3.6758-10.426-3.6758-16.086 0-20.211 16.461-36.711 36.75-36.711h0.074219c4.3125 0 8.5859 0.75 12.523 2.2109 3.1484 1.1641 6.5625-0.44922 7.6875-3.5234 1.1289-3.043-0.44531-6.4922-3.5234-7.5781z"/>
  <path d="m778.65 728.36c0 7.4258 1.6875 14.625 4.9141 21.262 1.0117 2.1367 3.1484 3.3359 5.3633 3.3359 0.86328 0 1.7617-0.1875 2.625-0.63672 2.9258-1.3867 4.1641-4.9883 2.6992-7.9883-2.3984-5.0234-3.6758-10.387-3.6758-16.051 0-20.25 16.461-36.711 36.75-36.711h0.074219c4.3125 0 8.5859 0.75 12.523 2.2109 3.1484 1.1641 6.5625-0.44922 7.6875-3.5234 1.0859-3.1133-0.48828-6.5234-3.5625-7.6484-5.3984-2.0234-11.023-3-16.727-2.9609-26.77 0.035156-48.672 21.859-48.672 48.711z"/>
  <path d="m951.9 743.59c-5.3984-2.0234-11.023-3-16.727-2.9609-26.812 0-48.711 21.824-48.711 48.676 0 7.4258 1.6875 14.625 4.9141 21.262 1.0117 2.1367 3.1484 3.3359 5.3633 3.3359 0.86328 0 1.7617-0.1875 2.625-0.63672 2.9258-1.3867 4.1641-4.9883 2.6992-7.9883-2.3984-5.0234-3.6758-10.387-3.6758-16.051 0-20.25 16.461-36.711 36.75-36.711h0.074219c4.3125 0 8.5859 0.75 12.523 2.2109 3.1484 1.1641 6.5625-0.44922 7.6875-3.5234 1.1289-3.0742-0.44531-6.4883-3.5234-7.6133z"/>
  <path d="m591 893.59c-5.3984-2.0234-11.023-3-16.762-2.9609-26.812 0-48.676 21.824-48.676 48.676 0 7.4258 1.6133 14.625 4.8359 21.262 1.0508 2.1367 3.1484 3.3359 5.3633 3.3359 0.89844 0 1.7617-0.1875 2.6992-0.63672 2.9258-1.3867 4.1992-4.9883 2.7383-7.9883-2.4375-5.0234-3.6758-10.387-3.6758-16.051 0-20.25 16.461-36.711 36.75-36.711h0.074218c4.3125 0 8.5117 0.75 12.523 2.2109 3.1133 1.1641 6.5234-0.44922 7.6484-3.5234 1.168-3.0742-0.40625-6.4883-3.5195-7.6133z"/>
 </g>
</svg>
