<svg xmlns="http://www.w3.org/2000/svg" xmlns:xlink="http://www.w3.org/1999/xlink" width="1080" zoomAndPan="magnify" viewBox="0 0 810 809.999993" height="1080" preserveAspectRatio="xMidYMid meet" version="1.0"><defs><filter x="0%" y="0%" width="100%" height="100%" id="1def146bdc"><feColorMatrix values="0 0 0 0 1 0 0 0 0 1 0 0 0 0 1 0 0 0 1 0" color-interpolation-filters="sRGB"/></filter><mask id="101cf6a43a"><g filter="url(#1def146bdc)"><rect x="-81" width="972" fill="#000000" y="-80.999999" height="971.999992" fill-opacity="0.15"/></g></mask><clipPath id="358b2f7f88"><rect x="0" width="326" y="0" height="326"/></clipPath></defs><rect x="-81" width="972" fill="#ffffff" y="-80.999999" height="971.999992" fill-opacity="1"/><rect x="-81" width="972" fill="#ffffff" y="-80.999999" height="971.999992" fill-opacity="1"/><g mask="url(#101cf6a43a)"><g transform="matrix(1, 0, 0, 1, 242, 242)"><g clip-path="url(#358b2f7f88)"><path fill="#000000" d="M 163 41.5 C 95.902344 41.5 41.5 95.902344 41.5 163 C 41.5 230.097656 95.902344 284.5 163 284.5 C 230.097656 284.5 284.5 230.097656 284.5 163 C 284.5 95.902344 230.097656 41.5 163 41.5 Z M 163 274.375 C 101.589844 274.375 51.625 224.398438 51.625 163 C 51.625 101.589844 101.589844 51.625 163 51.625 C 224.398438 51.625 274.375 101.589844 274.375 163 C 274.375 224.398438 224.398438 274.375 163 274.375 Z M 163 274.375 " fill-opacity="1" fill-rule="nonzero"/><path fill="#000000" d="M 247.160156 120.03125 L 247.179688 120.03125 C 248.34375 120.03125 249.496094 120.222656 250.558594 120.625 C 251.410156 120.941406 252.332031 120.515625 252.636719 119.675781 C 252.929688 118.835938 252.503906 117.914062 251.675781 117.609375 C 250.214844 117.074219 248.699219 116.800781 247.15625 116.8125 C 239.917969 116.8125 234.003906 122.703125 234.003906 129.953125 C 234.003906 131.96875 234.460938 133.902344 235.332031 135.695312 C 235.605469 136.261719 236.183594 136.59375 236.78125 136.59375 C 237.015625 136.59375 237.257812 136.542969 237.488281 136.441406 C 238.28125 136.046875 238.613281 135.085938 238.21875 134.285156 C 237.570312 132.929688 237.226562 131.472656 237.226562 129.953125 C 237.234375 124.472656 241.683594 120.03125 247.160156 120.03125 Z M 247.160156 120.03125 " fill-opacity="1" fill-rule="nonzero"/><path fill="#000000" d="M 262.445312 170.128906 C 260.976562 169.582031 259.460938 169.316406 257.921875 169.328125 C 250.679688 169.328125 244.777344 175.222656 244.777344 182.472656 C 244.777344 184.476562 245.222656 186.417969 246.09375 188.210938 C 246.367188 188.789062 246.945312 189.113281 247.542969 189.113281 C 247.777344 189.113281 248.019531 189.0625 248.261719 188.960938 C 249.050781 188.566406 249.386719 187.59375 248.992188 186.804688 C 248.332031 185.4375 247.988281 183.988281 247.988281 182.460938 C 247.988281 176.992188 252.433594 172.546875 257.910156 172.546875 L 257.929688 172.546875 C 259.09375 172.546875 260.25 172.742188 261.324219 173.144531 C 262.164062 173.460938 263.09375 173.035156 263.386719 172.195312 C 263.679688 171.355469 263.277344 170.433594 262.445312 170.128906 Z M 262.445312 170.128906 " fill-opacity="1" fill-rule="nonzero"/><path fill="#000000" d="M 244.78125 153.359375 C 244.78125 155.375 245.226562 157.308594 246.097656 159.101562 C 246.371094 159.667969 246.945312 160.003906 247.542969 160.003906 C 247.777344 160.003906 248.019531 159.953125 248.265625 159.851562 C 249.054688 159.457031 249.386719 158.496094 248.992188 157.695312 C 248.335938 156.335938 247.992188 154.878906 247.992188 153.359375 C 247.992188 147.882812 252.433594 143.4375 257.914062 143.4375 L 257.933594 143.4375 C 259.097656 143.4375 260.25 143.628906 261.324219 144.035156 C 262.164062 144.347656 263.097656 143.921875 263.390625 143.082031 C 263.683594 142.242188 263.269531 141.320312 262.4375 141.019531 C 260.96875 140.480469 259.453125 140.207031 257.914062 140.21875 C 250.683594 140.21875 244.78125 146.109375 244.78125 153.359375 Z M 244.78125 153.359375 " fill-opacity="1" fill-rule="nonzero"/><path fill="#000000" d="M 230.167969 215.691406 C 228.710938 215.144531 227.191406 214.878906 225.652344 214.890625 C 218.414062 214.890625 212.5 220.785156 212.5 228.035156 C 212.5 230.039062 212.957031 231.980469 213.828125 233.773438 C 214.097656 234.351562 214.675781 234.675781 215.273438 234.675781 C 215.507812 234.675781 215.75 234.625 215.984375 234.503906 C 216.773438 234.128906 217.109375 233.15625 216.710938 232.347656 C 216.066406 230.988281 215.71875 229.542969 215.71875 228.011719 C 215.71875 222.546875 220.164062 218.101562 225.640625 218.101562 L 225.664062 218.101562 C 226.828125 218.101562 227.980469 218.304688 229.042969 218.699219 C 229.894531 219.011719 230.816406 218.578125 231.117188 217.746094 C 231.421875 216.917969 231 215.996094 230.167969 215.691406 Z M 230.167969 215.691406 " fill-opacity="1" fill-rule="nonzero"/><path fill="#000000" d="M 187.148438 247.332031 C 185.691406 246.785156 184.171875 246.523438 182.621094 246.53125 C 175.382812 246.53125 169.492188 252.425781 169.492188 259.675781 C 169.492188 261.679688 169.925781 263.625 170.796875 265.414062 C 171.070312 265.992188 171.648438 266.316406 172.246094 266.316406 C 172.476562 266.316406 172.71875 266.265625 172.953125 266.144531 C 173.742188 265.769531 174.078125 264.796875 173.683594 263.988281 C 173.042969 262.632812 172.699219 261.183594 172.699219 259.652344 C 172.699219 254.1875 177.136719 249.742188 182.613281 249.742188 L 182.632812 249.742188 C 183.796875 249.742188 184.949219 249.945312 186.035156 250.339844 C 186.863281 250.652344 187.796875 250.21875 188.089844 249.386719 C 188.402344 248.558594 187.980469 247.636719 187.148438 247.332031 Z M 187.148438 247.332031 " fill-opacity="1" fill-rule="nonzero"/><path fill="#000000" d="M 196.554688 219.375 C 197.71875 219.375 198.871094 219.578125 199.933594 219.972656 C 200.785156 220.289062 201.707031 219.851562 202.007812 219.023438 C 202.304688 218.179688 201.878906 217.261719 201.046875 216.957031 C 199.589844 216.410156 198.070312 216.148438 196.53125 216.15625 C 189.292969 216.15625 183.378906 222.050781 183.378906 229.300781 C 183.378906 231.304688 183.835938 233.25 184.707031 235.039062 C 184.980469 235.617188 185.554688 235.941406 186.15625 235.941406 C 186.386719 235.941406 186.628906 235.890625 186.863281 235.769531 C 187.652344 235.394531 187.988281 234.421875 187.59375 233.613281 C 186.945312 232.257812 186.597656 230.808594 186.597656 229.277344 C 186.597656 223.8125 191.042969 219.367188 196.523438 219.367188 C 196.550781 219.375 196.550781 219.375 196.550781 219.375 Z M 196.554688 219.375 " fill-opacity="1" fill-rule="nonzero"/><path fill="#000000" d="M 212.734375 173.308594 C 212.96875 173.308594 213.210938 173.246094 213.441406 173.144531 C 214.234375 172.75 214.566406 171.789062 214.171875 170.988281 C 213.523438 169.632812 213.179688 168.175781 213.179688 166.65625 C 213.179688 161.175781 217.625 156.734375 223.101562 156.734375 L 223.121094 156.734375 C 224.285156 156.734375 225.441406 156.925781 226.503906 157.328125 C 227.351562 157.644531 228.273438 157.21875 228.578125 156.378906 C 228.871094 155.539062 228.445312 154.617188 227.617188 154.3125 C 226.160156 153.777344 224.640625 153.503906 223.101562 153.515625 C 215.859375 153.515625 209.949219 159.40625 209.949219 166.65625 C 209.949219 168.683594 210.402344 170.605469 211.273438 172.398438 C 211.570312 172.964844 212.144531 173.308594 212.734375 173.308594 Z M 212.734375 173.308594 " fill-opacity="1" fill-rule="nonzero"/><path fill="#000000" d="M 213.714844 242.917969 C 212.257812 242.371094 210.742188 242.105469 209.199219 242.105469 C 201.960938 242.105469 196.046875 248 196.046875 255.257812 C 196.046875 257.253906 196.503906 259.199219 197.375 260.992188 C 197.648438 261.566406 198.226562 261.902344 198.824219 261.902344 C 199.054688 261.902344 199.300781 261.839844 199.53125 261.730469 C 200.320312 261.34375 200.65625 260.375 200.261719 259.574219 C 199.613281 258.214844 199.269531 256.757812 199.269531 255.230469 C 199.269531 249.773438 203.714844 245.316406 209.191406 245.316406 L 209.210938 245.316406 C 210.375 245.316406 211.527344 245.519531 212.59375 245.914062 C 213.441406 246.230469 214.363281 245.792969 214.667969 244.964844 C 214.972656 244.140625 214.546875 243.210938 213.714844 242.917969 Z M 213.714844 242.917969 " fill-opacity="1" fill-rule="nonzero"/><path fill="#000000" d="M 211.234375 197.65625 C 211.234375 199.664062 211.691406 201.605469 212.5625 203.398438 C 212.835938 203.976562 213.414062 204.296875 214.011719 204.296875 C 214.242188 204.296875 214.484375 204.246094 214.71875 204.125 C 215.507812 203.753906 215.84375 202.78125 215.449219 201.96875 C 214.800781 200.613281 214.457031 199.164062 214.457031 197.636719 C 214.457031 192.167969 218.898438 187.722656 224.378906 187.722656 L 224.398438 187.722656 C 225.5625 187.722656 226.714844 187.925781 227.777344 188.320312 C 228.628906 188.636719 229.550781 188.199219 229.855469 187.371094 C 230.148438 186.527344 229.722656 185.609375 228.894531 185.304688 C 227.433594 184.757812 225.917969 184.496094 224.375 184.503906 C 217.148438 184.515625 211.234375 190.40625 211.234375 197.65625 Z M 211.234375 197.65625 " fill-opacity="1" fill-rule="nonzero"/><path fill="#000000" d="M 258.011719 201.769531 C 256.554688 201.222656 255.035156 200.960938 253.496094 200.96875 C 246.257812 200.96875 240.34375 206.863281 240.34375 214.113281 C 240.34375 216.117188 240.800781 218.0625 241.671875 219.851562 C 241.945312 220.429688 242.523438 220.753906 243.121094 220.753906 C 243.351562 220.753906 243.59375 220.703125 243.828125 220.582031 C 244.617188 220.207031 244.953125 219.234375 244.558594 218.425781 C 243.910156 217.070312 243.566406 215.621094 243.566406 214.089844 C 243.566406 208.625 248.007812 204.179688 253.488281 204.179688 L 253.507812 204.179688 C 254.671875 204.179688 255.824219 204.382812 256.886719 204.777344 C 257.738281 205.089844 258.660156 204.65625 258.964844 203.824219 C 259.269531 202.996094 258.84375 202.074219 258.011719 201.769531 Z M 258.011719 201.769531 " fill-opacity="1" fill-rule="nonzero"/><path fill="#000000" d="M 160.570312 242.269531 C 159.113281 241.722656 157.59375 241.460938 156.042969 241.46875 C 148.804688 241.46875 142.902344 247.363281 142.902344 254.613281 C 142.902344 256.617188 143.335938 258.5625 144.207031 260.351562 C 144.492188 260.929688 145.058594 261.253906 145.65625 261.253906 C 145.898438 261.253906 146.132812 261.203125 146.382812 261.082031 C 147.175781 260.707031 147.519531 259.734375 147.125 258.925781 C 146.464844 257.570312 146.132812 256.121094 146.132812 254.589844 C 146.132812 249.125 150.574219 244.679688 156.054688 244.679688 L 156.074219 244.679688 C 157.238281 244.679688 158.371094 244.882812 159.453125 245.277344 C 160.296875 245.589844 161.214844 245.15625 161.519531 244.324219 C 161.835938 243.496094 161.410156 242.574219 160.570312 242.269531 Z M 160.570312 242.269531 " fill-opacity="1" fill-rule="nonzero"/></g></g></g></svg>